# xmcd CD database file
#
# Track frame offsets:
#	182
#	14000
#	27097
#	40500
#	55040
#	69982
#	85000
#	97182
#	115422
#	132282
#	148285
#	164942
#	177805
#	190465
#	202060
#	214955
#	228062
#	241537
#	253775
#	264035
#	282055
#	293210
#	305027
#	320062
#
# Disc length: 4451 seconds
#
# Revision: 0
# Processed by: cddbd v1.4PL0 Copyright (c) Steve Scherf et al.
# Submitted via: CDex 1.50
#
DISCID=65116118
DTITLE=Dizzy Gillespie - Plays in Paris
DYEAR=1900
DGENRE=Jazz
TTITLE0=Afro Paris
TTITLE1=Afro Paris (alternate take)
TTITLE2=Hurry Home
TTITLE3=Hurry Home (alternate take)
TTITLE4=Say Eh!
TTITLE5=Say Eh! (alternate take)
TTITLE6=I Cover the Waterfront
TTITLE7=Cripple Crapple Crutch
TTITLE8=Dizzy Song (Lady Bird)
TTITLE9=Somebody Loves Me
TTITLE10=He's Funny That way
TTITLE11=Wrap Your Troubles in Dreams
TTITLE12=Wrap Your Troubles in Dreams (alternate take)
TTITLE13=Sweet Lorraine
TTITLE14=Everything Happens to Me
TTITLE15=I Don't Know Why
TTITLE16=Always
TTITLE17=Mon Homme
TTITLE18=Clappin' Rhythm'
TTITLE19=Fais Gaffe (Watch Out)
TTITLE20=Moon Nocturne
TTITLE21=This is the Way
TTITLE22='S Wonderful
TTITLE23=Oo-Bla-Dee
EXTD=
EXTT0=
EXTT1=
EXTT2=
EXTT3=
EXTT4=
EXTT5=
EXTT6=
EXTT7=
EXTT8=
EXTT9=
EXTT10=
EXTT11=
EXTT12=
EXTT13=
EXTT14=
EXTT15=
EXTT16=
EXTT17=
EXTT18=
EXTT19=
EXTT20=
EXTT21=
EXTT22=
EXTT23=
PLAYORDER=
